Coordinates
version=1
nRows=5
nColumns=40
inDegrees=yes

Units are S.I. units (second, meters, Newtons, ...)
Angles are in degrees.

endheader
time	pelvis_tilt	pelvis_list	pelvis_rotation	pelvis_tx	pelvis_ty	pelvis_tz	hip_flexion_r	hip_adduction_r	hip_rotation_r	knee_angle_r	knee_angle_r_beta	ankle_angle_r	subtalar_angle_r	mtp_angle_r	hip_flexion_l	hip_adduction_l	hip_rotation_l	knee_angle_l	knee_angle_l_beta	ankle_angle_l	subtalar_angle_l	mtp_angle_l	lumbar_extension	lumbar_bending	lumbar_rotation	arm_flex_r	arm_add_r	arm_rot_r	elbow_flex_r	pro_sup_r	wrist_flex_r	wrist_dev_r	arm_flex_l	arm_add_l	arm_rot_l	elbow_flex_l	pro_sup_l	wrist_flex_l	wrist_dev_l
      2.46500000	     -8.61155599	     -3.76892867	     -8.50363824	      0.95876829	      0.92082948	      0.47005426	     23.35392181	      2.51157523	     -4.36572621	     20.31431455	     20.31431455	      8.54518147	      5.33069363	     -3.47295922	      5.86410551	     -6.62507036	    -10.14259874	     21.07857100	     21.07857100	     19.81586719	    -12.10299175	      2.71161980	    -11.76153331	      7.91319413	      0.48960862	     -7.55949094	    -12.07566930	    -11.96814003	     35.14062484	     45.71389161	      0.00000000	      0.00000000	     23.73302614	    -14.70983373	     -3.84218266	     82.98714218	     47.60971548	      0.00000000	      0.00000000
      2.48285714	     -8.67137072	     -4.05652116	     -8.11596209	      0.95979347	      0.92140473	      0.47354394	     22.71563929	      2.92024807	     -4.72493573	     20.00275596	     20.00275596	      9.07446990	      5.35649313	     -2.73362489	      6.57510325	     -7.48338935	    -10.04025461	     23.08718555	     23.08718555	     19.47075432	    -12.02386645	      1.86252023	    -11.58350454	      8.25471421	      0.46909931	     -7.92625637	    -12.81979372	     -9.95059744	     39.35700492	     45.44471047	      0.00000000	      0.00000000	     23.27806157	    -14.81314209	     -2.20119969	     80.18859286	     47.49247025	      0.00000000	      0.00000000
      2.50071429	     -8.56398210	     -4.16347427	     -7.70845744	      0.96099275	      0.92224000	      0.47684349	     21.93152613	      3.11336928	     -5.02403977	     19.70300624	     19.70300624	      9.36579313	      5.35836681	     -2.72112639	      7.24495028	     -8.02030584	     -9.48001367	     25.25087096	     25.25087096	     18.89049912	    -12.63287630	      1.45088566	    -11.55929513	      8.27524092	      0.10357768	     -6.72196329	    -13.02653906	     -9.89069547	     40.16994984	     45.42125858	      0.00000000	      0.00000000	     22.09996550	    -14.65482116	     -1.66804320	     78.86846145	     47.43203853	      0.00000000	      0.00000000
      2.51857143	     -8.47531667	     -4.26445684	     -7.26500149	      0.96214938	      0.92294921	      0.48005565	     21.17322104	      3.31051767	     -5.29611100	     19.39684114	     19.39684114	      9.63847125	      5.27188805	     -2.68375057	      8.25921263	     -8.60343087	     -8.82473878	     27.96651417	     27.96651417	     18.09565663	    -13.31362162	      0.77411117	    -11.46262846	      8.28431602	     -0.29595986	     -5.53866861	    -13.26132830	     -9.74485538	     41.16077250	     45.38639017	      0.00000000	      0.00000000	     20.87063665	    -14.51694701	     -0.99940499	     77.01490716	     47.35324587	      0.00000000	      0.00000000
      2.53642857	     -8.34943802	     -4.25832165	     -6.78419253	      0.96333584	      0.92352801	      0.48315197	     20.46309319	      3.41775387	     -5.37923129	     19.23934968	     19.23934968	     10.00590443	      4.84254197	     -2.58866637	      9.42680864	     -9.06703750	     -8.06573821	     30.91141402	     30.91141402	     16.59379844	    -14.24611011	     -1.05531247	    -11.26785877	      8.18093530	     -0.36913704	     -4.97494249	    -13.79318504	     -8.69830147	     43.13856233	     45.27401397	      0.00000000	      0.00000000	     20.39404906	    -14.20182334	      0.47203082	     72.97909371	     47.20243165	      0.00000000	      0.00000000
